<?xml version="1.0" encoding="utf-8"?>
<svg viewBox="616.059 178.171 84 84" width="84" height="84" xmlns="http://www.w3.org/2000/svg">
  <path d="M 619.059 208.171 C 617.402 208.171 616.059 206.829 616.059 205.171 L 616.059 187.171 C 616.059 182.208 620.096 178.171 625.059 178.171 L 643.059 178.171 C 644.716 178.171 646.059 179.513 646.059 181.171 C 646.059 182.829 644.716 184.171 643.059 184.171 L 625.059 184.171 C 623.405 184.171 622.059 185.516 622.059 187.171 L 622.059 205.171 C 622.059 206.829 620.716 208.171 619.059 208.171 Z M 700.059 205.171 L 700.059 187.171 C 700.059 182.208 696.022 178.171 691.059 178.171 L 673.059 178.171 C 671.402 178.171 670.059 179.513 670.059 181.171 C 670.059 182.829 671.402 184.171 673.059 184.171 L 691.059 184.171 C 692.713 184.171 694.059 185.516 694.059 187.171 L 694.059 205.171 C 694.059 206.829 695.402 208.171 697.059 208.171 C 698.716 208.171 700.059 206.829 700.059 205.171 Z M 646.059 259.171 C 646.059 257.513 644.716 256.171 643.059 256.171 L 625.059 256.171 C 623.405 256.171 622.059 254.826 622.059 253.171 L 622.059 235.171 C 622.059 233.513 620.716 232.171 619.059 232.171 C 617.402 232.171 616.059 233.513 616.059 235.171 L 616.059 253.171 C 616.059 258.134 620.096 262.171 625.059 262.171 L 643.059 262.171 C 644.716 262.171 646.059 260.829 646.059 259.171 Z M 700.059 253.171 L 700.059 235.171 C 700.059 233.513 698.716 232.171 697.059 232.171 C 695.402 232.171 694.059 233.513 694.059 235.171 L 694.059 253.171 C 694.059 254.826 692.713 256.171 691.059 256.171 L 673.059 256.171 C 671.402 256.171 670.059 257.513 670.059 259.171 C 670.059 260.829 671.402 262.171 673.059 262.171 L 691.059 262.171 C 696.022 262.171 700.059 258.134 700.059 253.171 Z"/>
</svg>