<?xml version="1.0" encoding="utf-8"?>
<svg viewBox="713.2595 149.543 92.9119 92.926" width="92.912" height="92.926" xmlns="http://www.w3.org/2000/svg">
  <path d="M 804.998 150.716 C 803.436 149.152 800.901 149.152 799.338 150.716 L 778.338 171.716 L 776.708 157.106 C 776.362 154.027 772.812 152.477 770.318 154.317 C 769.161 155.17 768.547 156.577 768.708 158.006 L 771.208 180.956 C 771.208 181.016 771.208 181.076 771.208 181.136 C 771.208 181.196 771.208 181.346 771.268 181.446 C 771.301 181.584 771.341 181.721 771.388 181.856 C 771.388 181.956 771.458 182.046 771.498 182.136 C 771.563 182.277 771.637 182.413 771.718 182.546 C 771.718 182.626 771.798 182.696 771.848 182.776 C 772.119 183.166 772.458 183.504 772.848 183.776 L 773.068 183.906 C 773.204 183.987 773.344 184.061 773.488 184.126 L 773.768 184.236 L 774.178 184.356 L 774.488 184.416 L 774.668 184.416 L 797.708 187.006 L 798.148 187.006 C 801.227 187.171 803.331 183.941 801.935 181.192 C 801.287 179.916 800.007 179.083 798.578 179.006 L 783.958 177.416 L 804.958 156.416 C 806.56 154.86 806.578 152.294 804.998 150.716 Z" transform="matrix(1.0000000000000002, 0, 0, 1.0000000000000002, -5.684341886080802e-14, 0)"/>
  <path d="M 802.148 208.596 C 801.933 206.368 799.932 204.749 797.708 205.006 L 774.758 207.506 L 774.578 207.506 L 774.268 207.566 L 773.858 207.686 L 773.578 207.796 C 773.434 207.861 773.294 207.934 773.158 208.016 L 772.938 208.146 C 772.548 208.417 772.209 208.756 771.938 209.146 C 771.888 209.216 771.848 209.296 771.808 209.376 C 771.727 209.508 771.653 209.645 771.588 209.786 C 771.588 209.876 771.508 209.976 771.478 210.066 C 771.431 210.2 771.391 210.337 771.358 210.476 C 771.358 210.576 771.358 210.686 771.298 210.786 C 771.238 210.886 771.298 210.906 771.298 210.966 L 768.708 234.006 C 768.469 236.201 770.053 238.175 772.248 238.416 L 772.688 238.416 C 774.74 238.428 776.468 236.885 776.688 234.846 L 778.278 220.196 L 799.278 241.196 C 801.457 243.374 805.177 242.378 805.974 239.402 C 806.344 238.02 805.949 236.547 804.938 235.536 L 783.938 214.536 L 798.608 213.006 C 800.803 212.765 802.388 210.791 802.148 208.596 Z" transform="matrix(1.0000000000000002, 0, 0, 1.0000000000000002, -5.684341886080802e-14, 0)"/>
  <path d="M 714.418 156.366 L 735.418 177.366 L 720.808 179.006 C 717.729 179.171 715.984 182.608 717.667 185.192 C 718.448 186.391 719.809 187.083 721.238 187.006 L 721.708 187.006 L 744.658 184.506 L 744.838 184.506 L 745.148 184.446 L 745.558 184.326 L 745.838 184.216 C 745.982 184.151 746.123 184.077 746.258 183.996 L 746.478 183.866 C 746.868 183.594 747.207 183.256 747.478 182.866 C 747.528 182.796 747.568 182.716 747.608 182.636 C 747.689 182.503 747.763 182.367 747.828 182.226 C 747.828 182.136 747.908 182.036 747.938 181.946 C 747.985 181.811 748.025 181.674 748.058 181.536 C 748.058 181.436 748.058 181.326 748.118 181.226 C 748.178 181.126 748.118 181.106 748.118 181.046 L 750.708 158.006 C 751.043 154.927 747.919 152.64 745.085 153.889 C 743.77 154.469 742.864 155.707 742.708 157.136 L 741.118 171.756 L 720.118 150.756 C 717.94 148.577 714.22 149.574 713.422 152.55 C 713.052 153.931 713.447 155.405 714.458 156.416 L 714.418 156.366 Z" transform="matrix(1.0000000000000002, 0, 0, 1.0000000000000002, -5.684341886080802e-14, 0)"/>
  <path d="M 714.418 241.296 C 715.981 242.86 718.516 242.86 720.078 241.296 L 741.078 220.296 L 742.708 234.906 C 742.929 236.945 744.657 238.488 746.708 238.476 L 747.148 238.476 C 749.378 238.246 750.983 236.23 750.708 234.006 L 748.208 211.056 C 748.208 210.996 748.208 210.936 748.208 210.876 C 748.208 210.816 748.208 210.666 748.148 210.566 C 748.115 210.427 748.075 210.29 748.028 210.156 C 748.028 210.056 747.958 209.966 747.918 209.876 C 747.853 209.735 747.779 209.598 747.698 209.466 C 747.698 209.386 747.618 209.316 747.568 209.236 C 747.297 208.846 746.958 208.507 746.568 208.236 L 746.348 208.106 C 746.213 208.024 746.072 207.951 745.928 207.886 L 745.648 207.776 L 745.238 207.656 L 744.928 207.596 L 744.748 207.596 L 721.708 205.006 C 718.629 204.671 716.342 207.795 717.592 210.629 C 718.171 211.944 719.409 212.85 720.838 213.006 L 735.488 214.596 L 714.488 235.596 C 712.878 237.143 712.846 239.709 714.418 241.296 Z" transform="matrix(1.0000000000000002, 0, 0, 1.0000000000000002, -5.684341886080802e-14, 0)"/>
</svg>