<?xml version="1.0" encoding="utf-8"?>
<svg viewBox="521.9503 177.2203 34.4 39.3" width="34.4" height="39.3" xmlns="http://www.w3.org/2000/svg">
  <g transform="matrix(1.0000000000000002, 0, 0, 1.0000000000000002, 507.1503371469726, 164.92033631980922)">
    <path d="M33.5,17.3v-2c0.3,0,0.6,0,0.8,0c0.3,0,0.5,0,0.8,0c0.8,0,1.5-0.7,1.5-1.5c0-0.8-0.7-1.5-1.5-1.5c-1.8,0-3.7,0-5.5,0   c-0.3,0-0.5,0-0.8,0c-0.8,0-1.5,0.7-1.5,1.5c0,0.8,0.7,1.5,1.5,1.5c0.6,0,1.1,0,1.7,0v2c-8.8,0.7-15.7,8.1-15.7,17.1   c0,9.5,7.7,17.2,17.2,17.2c9.5,0,17.2-7.7,17.2-17.2C49.2,25.5,42.3,18.1,33.5,17.3z M32,48.7c-7.8,0-14.2-6.4-14.2-14.2   c0-7.8,6.4-14.2,14.2-14.2c7.8,0,14.2,6.4,14.2,14.2C46.2,42.3,39.8,48.7,32,48.7z"/>
    <path d="M32,22.3c-0.8,0-1.5,0.7-1.5,1.5c0,3,0,5.9,0,8.9c0,0.4,0,0.8,0,1.3c0,0.8,0.7,1.5,1.5,1.5c0.8,0,1.5-0.7,1.5-1.5   c0-3,0-5.9,0-8.9c0-0.4,0-0.8,0-1.3C33.5,23,32.8,22.3,32,22.3z"/>
  </g>
</svg>