<?xml version="1.0" encoding="utf-8"?>
<svg viewBox="608.708 177.519 169 75.326" width="169" height="75.326" xmlns="http://www.w3.org/2000/svg">
  <path d="M 639.418 225.998 C 631.886 225.998 626.671 231.212 626.671 239.131 C 626.671 248.016 633.238 252.651 641.157 252.651 C 644.826 252.651 647.917 251.492 649.269 250.72 L 650.234 245.312 L 649.655 245.312 C 648.496 246.278 645.599 247.243 642.316 247.243 C 637.294 247.243 634.397 244.926 633.624 240.676 L 650.814 240.676 C 651.2 239.711 651.393 238.166 651.393 236.814 C 651.2 230.44 646.372 225.998 639.418 225.998 Z M 633.431 236.62 C 634.01 232.951 636.328 231.212 639.418 231.212 C 642.702 231.212 644.633 232.951 644.633 236.62 L 633.431 236.62 Z" style="fill: rgb(255, 255, 255);"/>
  <path d="M 688.09 225.998 C 684.42 225.998 681.909 227.543 680.171 229.668 L 680.171 214.796 L 678.433 214.796 L 673.218 217.693 L 673.218 251.879 L 680.171 251.879 L 680.171 234.303 C 680.944 233.144 683.068 231.599 685.579 231.599 C 688.476 231.599 690.214 233.144 690.214 236.814 L 690.214 251.686 L 697.361 251.686 L 697.361 236.041 C 697.361 229.668 693.691 225.998 688.09 225.998 Z" style="fill: rgb(255, 255, 255);"/>
  <path d="M 714.358 225.998 C 706.825 225.998 701.61 231.212 701.61 239.131 C 701.61 248.016 708.177 252.651 716.096 252.651 C 719.766 252.651 722.856 251.492 724.208 250.72 L 725.174 245.312 L 724.401 245.312 C 723.242 246.278 720.345 247.243 717.062 247.243 C 712.04 247.243 709.143 244.926 708.37 240.676 L 725.56 240.676 C 725.946 239.711 726.139 238.166 726.139 236.814 C 726.139 230.44 721.311 225.998 714.358 225.998 Z M 708.37 236.62 C 708.95 232.951 711.267 231.212 714.358 231.212 C 717.641 231.212 719.573 232.951 719.573 236.62 L 708.37 236.62 Z" style="fill: rgb(255, 255, 255);"/>
  <path d="M 737.148 232.178 L 737.148 226.77 L 735.41 226.77 L 730.968 229.281 L 730.968 252.072 L 737.921 252.072 L 737.921 236.621 C 739.466 234.689 742.363 233.337 745.067 233.337 C 745.84 233.337 746.612 233.53 747.192 233.723 L 747.771 233.723 L 746.612 226.191 C 742.749 226.384 739.08 228.509 737.148 232.178 Z" style="fill: rgb(255, 255, 255);"/>
  <path d="M 762.256 214.602 C 756.269 214.602 752.213 218.465 752.213 224.066 L 752.213 228.315 L 747.77 231.792 L 747.77 232.758 L 752.213 232.758 L 752.213 252.072 L 759.166 252.072 L 759.166 232.758 L 765.346 232.758 L 766.505 227.157 L 759.166 227.157 L 759.166 224.259 C 759.166 221.362 761.291 220.203 763.801 220.203 C 765.153 220.203 766.119 220.59 766.505 220.783 L 767.085 220.783 L 766.119 215.375 C 765.54 214.989 763.994 214.602 762.256 214.602 Z" style="fill: rgb(255, 255, 255);"/>
  <path d="M 777.708 226.771 L 770.948 226.771 L 770.948 252.073 L 777.708 252.073 L 777.708 226.771 Z" style="fill: rgb(255, 255, 255);"/>
  <path d="M 623.58 232.372 L 624.739 226.771 L 615.661 226.771 L 615.661 220.977 L 613.923 220.977 L 608.708 223.874 L 608.708 243.381 C 608.708 250.721 613.73 252.845 618.365 252.845 C 620.49 252.845 622.228 252.459 623.387 251.686 L 624.353 246.085 L 623.966 246.085 C 623.194 246.665 621.649 247.244 620.103 247.244 C 617.206 247.244 615.854 245.699 615.854 242.609 L 615.854 232.372 L 623.58 232.372 Z" style="fill: rgb(255, 255, 255);"/>
  <path d="M 668.776 232.372 L 669.934 226.771 L 661.05 226.771 L 661.05 220.977 L 659.312 220.977 L 654.097 223.874 L 654.097 243.381 C 654.097 250.721 659.118 252.845 663.754 252.845 C 665.878 252.845 667.617 252.459 668.776 251.686 L 669.741 246.085 L 669.162 246.085 C 668.389 246.665 666.844 247.244 665.299 247.244 C 662.402 247.244 661.05 245.699 661.05 242.609 L 661.05 232.372 L 668.776 232.372 Z" style="fill: rgb(255, 255, 255);"/>
  <path d="M 712.233 201.469 L 719.187 205.525 L 722.663 203.4 L 722.663 195.481 L 712.233 201.469 Z" style="fill: rgb(255, 255, 255);"/>
  <path d="M 739.853 185.631 L 729.616 191.618 L 729.616 210.546 L 736.376 206.49 L 736.376 195.481 L 746.806 189.494 L 739.853 185.631 Z" style="fill: rgb(255, 255, 255);"/>
  <path d="M 746.806 181.575 L 739.853 177.519 L 739.853 185.631 L 746.806 189.494 L 746.806 181.575 Z" fill="#E01D40"/>
</svg>