<?xml version="1.0" encoding="utf-8"?>
<svg viewBox="561.2496 146.676 14.7196 11" width="14.72" height="11" xmlns="http://www.w3.org/2000/svg">
  <path class="cls-1" d="M 569.609 156.676 C 569.609 157.229 569.161 157.676 568.609 157.676 C 568.057 157.676 567.609 157.229 567.609 156.676 C 567.609 156.124 568.057 155.676 568.609 155.676 C 569.161 155.676 569.609 156.124 569.609 156.676 Z M 573.553 153.147 C 573.946 152.757 573.948 152.125 573.56 151.732 C 572.246 150.406 570.487 149.676 568.609 149.676 C 566.731 149.676 564.972 150.406 563.658 151.732 C 563.27 152.125 563.273 152.757 563.665 153.147 C 564.057 153.534 564.69 153.532 565.079 153.14 C 566.014 152.196 567.268 151.676 568.609 151.676 C 569.95 151.676 571.204 152.196 572.139 153.14 C 572.335 153.338 572.592 153.436 572.849 153.436 C 573.104 153.436 573.358 153.339 573.553 153.147 Z M 571.436 155.263 C 571.827 154.873 571.827 154.24 571.436 153.849 C 569.924 152.337 567.295 152.337 565.782 153.849 C 565.391 154.24 565.391 154.873 565.782 155.263 C 566.173 155.654 566.805 155.654 567.196 155.263 C 567.953 154.506 569.265 154.506 570.022 155.263 C 570.217 155.459 570.473 155.556 570.729 155.556 C 570.985 155.556 571.241 155.459 571.436 155.263 Z M 575.674 151.026 C 576.066 150.637 576.068 150.004 575.678 149.612 C 573.798 147.719 571.287 146.676 568.609 146.676 C 565.931 146.676 563.42 147.719 561.54 149.612 C 561.151 150.004 561.153 150.637 561.545 151.026 C 561.936 151.416 562.57 151.414 562.959 151.021 C 564.461 149.509 566.467 148.676 568.609 148.676 C 570.751 148.676 572.757 149.509 574.259 151.021 C 574.455 151.218 574.712 151.317 574.969 151.317 C 575.224 151.317 575.479 151.22 575.674 151.026 Z" style="stroke-width: 0px;" transform="matrix(1.0000000000000002, 0, 0, 1.0000000000000002, -1.4210854715202004e-14, 0)"/>
</svg>